<svg xmlns="http://www.w3.org/2000/svg" width="148" height="34" fill="none"><g fill="#00422A" clip-path="url(#a)"><path d="m15.457 7.723-6.276-3.32v15.474c.008 3.446 1.045 4.435 2.707 6.2 1.38 1.463 1.933 2.366 2.173 3.2a.171.171 0 0 1-.166.214.166.166 0 0 1-.134-.07c-.006-.004-1.082-1.86-2.885-3.333-2.128-1.742-3.4-2.094-3.4-6.227L7.48 3.503.996.079A.682.682 0 0 0 0 .715l.631 19.162c.072 6.206 4.594 7.764 8.5 9.465 2.057.893 3.898 2.1 4.958 4.284a.67.67 0 0 0 .578.374h.974V8.03a.346.346 0 0 0-.184-.307ZM31.644.079l-6.483 3.424.003 16.358c0 4.133-1.271 4.486-3.4 6.227-1.802 1.474-2.879 3.33-2.884 3.333a.168.168 0 0 1-.135.071.171.171 0 0 1-.17-.172c0-.01.005-.042.005-.042.24-.835.792-1.737 2.172-3.2 1.662-1.765 2.7-2.754 2.708-6.2V4.412l-6.277 3.31A.345.345 0 0 0 17 8.03V34h.974a.67.67 0 0 0 .578-.374c1.059-2.184 2.9-3.39 4.957-4.284 3.907-1.7 8.429-3.26 8.5-9.465L32.64.715a.682.682 0 0 0-.995-.636m8.919 25.223c-.247 0-.445-.222-.445-.47V8.97c0-.248.198-.47.445-.47H51.83c.247 0 .47.222.47.47v1.902c0 .247-.223.445-.47.445h-7.98a.486.486 0 0 0-.47.47v3.162c0 .248.223.47.47.47h6.572c.248 0 .47.222.47.47v1.877c0 .247-.222.445-.47.445H43.85a.486.486 0 0 0-.47.47v6.152c0 .248-.197.47-.445.47h-2.372Zm30.395 0c-.248 0-.445-.222-.445-.47v-1.086C69.6 24.833 68.29 25.5 66.659 25.5c-3.336 0-5.98-2.743-5.98-6.375s2.67-6.4 6.03-6.4c1.58 0 2.89.668 3.805 1.73v-1.037c0-.248.198-.47.445-.47h2.1c.247 0 .47.222.47.47v11.415c0 .247-.223.47-.47.47h-2.1Zm-3.78-2.644c1.853 0 3.36-1.507 3.36-3.533s-1.507-3.533-3.36-3.533c-1.854 0-3.361 1.532-3.361 3.533s1.507 3.533 3.36 3.533Zm24.039 2.643c-.247 0-.444-.222-.444-.47v-7.239c0-1.359-.791-2.05-1.977-2.05-1.63 0-2.15 1.086-2.15 2.445v6.844c0 .247-.222.47-.47.47H83.98c-.248 0-.445-.223-.445-.47v-7.24c0-1.358-.815-2.05-2.002-2.05-1.186 0-2.124.766-2.124 2.001v7.29a.487.487 0 0 1-.47.469h-2.224c-.247 0-.445-.223-.445-.47V13.416c0-.248.199-.47.445-.47h2.125c.247 0 .47.222.47.47v1.037c.444-.741 1.432-1.704 3.385-1.704 1.704 0 2.816.79 3.385 1.976.692-.692 1.556-2.001 3.681-2.001 2.668 0 4.151 1.655 4.151 4.299v7.808c0 .247-.222.47-.47.47h-2.223Zm13.66-8.598c-.345 0-.493-.148-.617-.42-.297-.666-1.186-1.086-2.62-1.086-1.434 0-2.397.47-2.397 1.235 0 2.372 8.352.025 8.352 4.942 0 2.743-2.47 4.127-5.856 4.127-2.965 0-5.238-.865-5.732-3.51-.05-.247 0-.543.445-.543h2.05c.371 0 .544.123.667.395.371.89 1.26 1.236 2.743 1.236 1.656 0 2.594-.568 2.594-1.383 0-2.496-8.4.024-8.4-4.942 0-2.52 2.026-4.003 5.683-4.003 2.718 0 4.917.914 5.461 3.36.049.173.099.593-.47.593h-1.903Zm16.96 2.422c0 3.632-2.817 6.375-6.473 6.375-3.657 0-6.474-2.743-6.474-6.375s2.792-6.4 6.474-6.4c3.682 0 6.473 2.768 6.473 6.4Zm-6.473 3.509c1.828 0 3.336-1.507 3.336-3.509s-1.508-3.509-3.336-3.509c-1.828 0-3.361 1.507-3.361 3.509s1.532 3.509 3.361 3.509Zm-.989-10.995c-.272 0-.444-.247-.37-.544l.717-2.174c.073-.247.271-.42.494-.42h2.323c.295 0 .518.321.37.642l-1.062 2.15c-.099.222-.247.346-.47.346h-2.002Zm9.969 13.663c-.247 0-.445-.222-.445-.47V8.97c0-.248.198-.47.445-.47h2.149c.248 0 .47.222.47.47v8.746c0 .124.05.124.173-.024l4.176-4.325c.321-.345.42-.42 1.038-.42h2.026c.421 0 .494.519.223.79l-4.102 4.053c-.123.123-.148.296-.024.445l4.818 6.499c.198.247.074.568-.223.568h-2.594c-.297 0-.494-.099-.816-.543l-3.311-4.547c-.148-.197-.272-.197-.42-.024l-.864.89c-.074.073-.099.147-.099.42v3.335c0 .248-.198.47-.445.47h-2.175Zm20.545.001c-.246 0-.444-.223-.444-.47v-7.24c0-1.358-.964-2.05-2.15-2.05-1.185 0-2.273.766-2.273 2.001v7.29a.487.487 0 0 1-.469.469h-2.225c-.247 0-.444-.223-.444-.47V13.418c0-.248.198-.47.444-.47h2.125c.247 0 .47.222.47.47v1.037c.444-.741 1.581-1.73 3.434-1.73 2.644 0 4.201 1.656 4.201 4.3v7.808c0 .247-.223.47-.47.47h-2.199Zm-91.201-.001c-.247 0-.445-.222-.445-.47V13.418c0-.247.198-.47.445-.47h2.125c.247 0 .47.223.47.47v.766c.493-.766 1.383-1.433 2.668-1.433.617 0 1.226.29 1.532.519.124.098.173.271.049.494L59.47 15.69c-.123.223-.32.248-.518.198-.248-.049-.494-.124-.766-.124-1.186 0-1.804.989-1.804 2.25v6.819c0 .247-.222.47-.47.47h-2.224Z"/></g><defs><clipPath id="a"><path fill="#fff" d="M0 0h147.559v34H0z"/></clipPath></defs></svg>